<?xml version="1.0" encoding="utf-8" standalone="no"?>
<!DOCTYPE svg PUBLIC "-//W3C//DTD SVG 1.1//EN"
  "http://www.w3.org/Graphics/SVG/1.1/DTD/svg11.dtd">
<svg xmlns:xlink="http://www.w3.org/1999/xlink" width="396pt" height="324pt" viewBox="0 0 396 324" xmlns="http://www.w3.org/2000/svg" version="1.1">
 <metadata>
  <rdf:RDF xmlns:dc="http://purl.org/dc/elements/1.1/" xmlns:cc="http://creativecommons.org/ns#" xmlns:rdf="http://www.w3.org/1999/02/22-rdf-syntax-ns#">
   <cc:Work>
    <dc:type rdf:resource="http://purl.org/dc/dcmitype/StillImage"/>
    <dc:format>image/svg+xml</dc:format>
    <dc:creator>
     <cc:Agent>
      <dc:title>Matplotlib v3.9.2, https://matplotlib.org/</dc:title>
     </cc:Agent>
    </dc:creator>
   </cc:Work>
  </rdf:RDF>
 </metadata>
 <defs>
  <style type="text/css">*{stroke-linejoin: round; stroke-linecap: butt}</style>
 </defs>
 <g id="figure_1">
  <g id="patch_1">
   <path d="M 0 324 
L 396 324 
L 396 0 
L 0 0 
z
" style="fill: #ffffff"/>
  </g>
  <g id="axes_1">
   <g id="patch_2">
    <path d="M 47.72 282.04 
L 377.28 282.04 
L 377.28 26.88 
L 47.72 26.88 
z
" style="fill: #ffffff"/>
   </g>
   <g id="matplotlib.axis_1">
    <g id="xtick_1">
     <g id="line2d_1">
      <defs>
       <path id="m4c0b9cfe3f" d="M 0 0 
L 0 3.5 
" style="stroke: #000000; stroke-width: 0.8"/>
      </defs>
      <g>
       <use xlink:href="#m4c0b9cfe3f" x="47.72" y="282.04" style="stroke: #000000; stroke-width: 0.8"/>
      </g>
     </g>
     <g id="text_1">
      <text style="font: 10px 'DejaVu Sans', 'Bitstream Vera Sans', 'Computer Modern Sans Serif', 'Lucida Grande', 'Verdana', 'Geneva', 'Lucid', 'Arial', 'Helvetica', 'Avant Garde', sans-serif; text-anchor: middle" x="47.72" y="296.638438" transform="rotate(-0 47.72 296.638438)">0.0</text>
     </g>
    </g>
    <g id="xtick_2">
     <g id="line2d_2">
      <g>
       <use xlink:href="#m4c0b9cfe3f" x="113.632" y="282.04" style="stroke: #000000; stroke-width: 0.8"/>
      </g>
     </g>
     <g id="text_2">
      <text style="font: 10px 'DejaVu Sans', 'Bitstream Vera Sans', 'Computer Modern Sans Serif', 'Lucida Grande', 'Verdana', 'Geneva', 'Lucid', 'Arial', 'Helvetica', 'Avant Garde', sans-serif; text-anchor: middle" x="113.632" y="296.638438" transform="rotate(-0 113.632 296.638438)">0.2</text>
     </g>
    </g>
    <g id="xtick_3">
     <g id="line2d_3">
      <g>
       <use xlink:href="#m4c0b9cfe3f" x="179.544" y="282.04" style="stroke: #000000; stroke-width: 0.8"/>
      </g>
     </g>
     <g id="text_3">
      <text style="font: 10px 'DejaVu Sans', 'Bitstream Vera Sans', 'Computer Modern Sans Serif', 'Lucida Grande', 'Verdana', 'Geneva', 'Lucid', 'Arial', 'Helvetica', 'Avant Garde', sans-serif; text-anchor: middle" x="179.544" y="296.638438" transform="rotate(-0 179.544 296.638438)">0.4</text>
     </g>
    </g>
    <g id="xtick_4">
     <g id="line2d_4">
      <g>
       <use xlink:href="#m4c0b9cfe3f" x="245.456" y="282.04" style="stroke: #000000; stroke-width: 0.8"/>
      </g>
     </g>
     <g id="text_4">
      <text style="font: 10px 'DejaVu Sans', 'Bitstream Vera Sans', 'Computer Modern Sans Serif', 'Lucida Grande', 'Verdana', 'Geneva', 'Lucid', 'Arial', 'Helvetica', 'Avant Garde', sans-serif; text-anchor: middle" x="245.456" y="296.638438" transform="rotate(-0 245.456 296.638438)">0.6</text>
     </g>
    </g>
    <g id="xtick_5">
     <g id="line2d_5">
      <g>
       <use xlink:href="#m4c0b9cfe3f" x="311.368" y="282.04" style="stroke: #000000; stroke-width: 0.8"/>
      </g>
     </g>
     <g id="text_5">
      <text style="font: 10px 'DejaVu Sans', 'Bitstream Vera Sans', 'Computer Modern Sans Serif', 'Lucida Grande', 'Verdana', 'Geneva', 'Lucid', 'Arial', 'Helvetica', 'Avant Garde', sans-serif; text-anchor: middle" x="311.368" y="296.638438" transform="rotate(-0 311.368 296.638438)">0.8</text>
     </g>
    </g>
    <g id="xtick_6">
     <g id="line2d_6">
      <g>
       <use xlink:href="#m4c0b9cfe3f" x="377.28" y="282.04" style="stroke: #000000; stroke-width: 0.8"/>
      </g>
     </g>
     <g id="text_6">
      <text style="font: 10px 'DejaVu Sans', 'Bitstream Vera Sans', 'Computer Modern Sans Serif', 'Lucida Grande', 'Verdana', 'Geneva', 'Lucid', 'Arial', 'Helvetica', 'Avant Garde', sans-serif; text-anchor: middle" x="377.28" y="296.638438" transform="rotate(-0 377.28 296.638438)">1.0</text>
     </g>
    </g>
    <g id="text_7">
     <text style="font: 10px 'DejaVu Sans', 'Bitstream Vera Sans', 'Computer Modern Sans Serif', 'Lucida Grande', 'Verdana', 'Geneva', 'Lucid', 'Arial', 'Helvetica', 'Avant Garde', sans-serif; text-anchor: middle" x="212.5" y="310.316563" transform="rotate(-0 212.5 310.316563)">Mean predicted fake probability</text>
    </g>
   </g>
   <g id="matplotlib.axis_2">
    <g id="ytick_1">
     <g id="line2d_7">
      <defs>
       <path id="m74c0a1dd85" d="M 0 0 
L -3.5 0 
" style="stroke: #000000; stroke-width: 0.8"/>
      </defs>
      <g>
       <use xlink:href="#m74c0a1dd85" x="47.72" y="282.04" style="stroke: #000000; stroke-width: 0.8"/>
      </g>
     </g>
     <g id="text_8">
      <text style="font: 10px 'DejaVu Sans', 'Bitstream Vera Sans', 'Computer Modern Sans Serif', 'Lucida Grande', 'Verdana', 'Geneva', 'Lucid', 'Arial', 'Helvetica', 'Avant Garde', sans-serif; text-anchor: end" x="40.72" y="285.839219" transform="rotate(-0 40.72 285.839219)">0.0</text>
     </g>
    </g>
    <g id="ytick_2">
     <g id="line2d_8">
      <g>
       <use xlink:href="#m74c0a1dd85" x="47.72" y="231.008" style="stroke: #000000; stroke-width: 0.8"/>
      </g>
     </g>
     <g id="text_9">
      <text style="font: 10px 'DejaVu Sans', 'Bitstream Vera Sans', 'Computer Modern Sans Serif', 'Lucida Grande', 'Verdana', 'Geneva', 'Lucid', 'Arial', 'Helvetica', 'Avant Garde', sans-serif; text-anchor: end" x="40.72" y="234.807219" transform="rotate(-0 40.72 234.807219)">0.2</text>
     </g>
    </g>
    <g id="ytick_3">
     <g id="line2d_9">
      <g>
       <use xlink:href="#m74c0a1dd85" x="47.72" y="179.976" style="stroke: #000000; stroke-width: 0.8"/>
      </g>
     </g>
     <g id="text_10">
      <text style="font: 10px 'DejaVu Sans', 'Bitstream Vera Sans', 'Computer Modern Sans Serif', 'Lucida Grande', 'Verdana', 'Geneva', 'Lucid', 'Arial', 'Helvetica', 'Avant Garde', sans-serif; text-anchor: end" x="40.72" y="183.775219" transform="rotate(-0 40.72 183.775219)">0.4</text>
     </g>
    </g>
    <g id="ytick_4">
     <g id="line2d_10">
      <g>
       <use xlink:href="#m74c0a1dd85" x="47.72" y="128.944" style="stroke: #000000; stroke-width: 0.8"/>
      </g>
     </g>
     <g id="text_11">
      <text style="font: 10px 'DejaVu Sans', 'Bitstream Vera Sans', 'Computer Modern Sans Serif', 'Lucida Grande', 'Verdana', 'Geneva', 'Lucid', 'Arial', 'Helvetica', 'Avant Garde', sans-serif; text-anchor: end" x="40.72" y="132.743219" transform="rotate(-0 40.72 132.743219)">0.6</text>
     </g>
    </g>
    <g id="ytick_5">
     <g id="line2d_11">
      <g>
       <use xlink:href="#m74c0a1dd85" x="47.72" y="77.912" style="stroke: #000000; stroke-width: 0.8"/>
      </g>
     </g>
     <g id="text_12">
      <text style="font: 10px 'DejaVu Sans', 'Bitstream Vera Sans', 'Computer Modern Sans Serif', 'Lucida Grande', 'Verdana', 'Geneva', 'Lucid', 'Arial', 'Helvetica', 'Avant Garde', sans-serif; text-anchor: end" x="40.72" y="81.711219" transform="rotate(-0 40.72 81.711219)">0.8</text>
     </g>
    </g>
    <g id="ytick_6">
     <g id="line2d_12">
      <g>
       <use xlink:href="#m74c0a1dd85" x="47.72" y="26.88" style="stroke: #000000; stroke-width: 0.8"/>
      </g>
     </g>
     <g id="text_13">
      <text style="font: 10px 'DejaVu Sans', 'Bitstream Vera Sans', 'Computer Modern Sans Serif', 'Lucida Grande', 'Verdana', 'Geneva', 'Lucid', 'Arial', 'Helvetica', 'Avant Garde', sans-serif; text-anchor: end" x="40.72" y="30.679219" transform="rotate(-0 40.72 30.679219)">1.0</text>
     </g>
    </g>
    <g id="text_14">
     <text style="font: 10px 'DejaVu Sans', 'Bitstream Vera Sans', 'Computer Modern Sans Serif', 'Lucida Grande', 'Verdana', 'Geneva', 'Lucid', 'Arial', 'Helvetica', 'Avant Garde', sans-serif; text-anchor: middle" x="18.737188" y="154.46" transform="rotate(-90 18.737188 154.46)">Observed fake fraction</text>
    </g>
   </g>
   <g id="line2d_13">
    <path d="M 62.180413 282.04 
L 80.051962 263.139259 
L 102.128851 179.976 
L 124.659439 256.524 
L 141.939455 179.976 
L 168.260848 58.775 
L 193.373869 111.933333 
L 214.265126 69.406667 
L 234.378334 26.88 
L 257.993637 26.88 
L 279.361225 26.88 
L 298.987075 26.88 
L 322.2941 26.88 
L 346.245345 26.88 
L 371.836702 28.039818 
" clip-path="url(#p5d6dca284c)" style="fill: none; stroke: #1f77b4; stroke-width: 1.5; stroke-linecap: square"/>
    <defs>
     <path id="m2dadb853f7" d="M 0 3 
C 0.795609 3 1.55874 2.683901 2.12132 2.12132 
C 2.683901 1.55874 3 0.795609 3 0 
C 3 -0.795609 2.683901 -1.55874 2.12132 -2.12132 
C 1.55874 -2.683901 0.795609 -3 0 -3 
C -0.795609 -3 -1.55874 -2.683901 -2.12132 -2.12132 
C -2.683901 -1.55874 -3 -0.795609 -3 0 
C -3 0.795609 -2.683901 1.55874 -2.12132 2.12132 
C -1.55874 2.683901 -0.795609 3 0 3 
z
" style="stroke: #1f77b4"/>
    </defs>
    <g clip-path="url(#p5d6dca284c)">
     <use xlink:href="#m2dadb853f7" x="62.180413" y="282.04" style="fill: #1f77b4; stroke: #1f77b4"/>
     <use xlink:href="#m2dadb853f7" x="80.051962" y="263.139259" style="fill: #1f77b4; stroke: #1f77b4"/>
     <use xlink:href="#m2dadb853f7" x="102.128851" y="179.976" style="fill: #1f77b4; stroke: #1f77b4"/>
     <use xlink:href="#m2dadb853f7" x="124.659439" y="256.524" style="fill: #1f77b4; stroke: #1f77b4"/>
     <use xlink:href="#m2dadb853f7" x="141.939455" y="179.976" style="fill: #1f77b4; stroke: #1f77b4"/>
     <use xlink:href="#m2dadb853f7" x="168.260848" y="58.775" style="fill: #1f77b4; stroke: #1f77b4"/>
     <use xlink:href="#m2dadb853f7" x="193.373869" y="111.933333" style="fill: #1f77b4; stroke: #1f77b4"/>
     <use xlink:href="#m2dadb853f7" x="214.265126" y="69.406667" style="fill: #1f77b4; stroke: #1f77b4"/>
     <use xlink:href="#m2dadb853f7" x="234.378334" y="26.88" style="fill: #1f77b4; stroke: #1f77b4"/>
     <use xlink:href="#m2dadb853f7" x="257.993637" y="26.88" style="fill: #1f77b4; stroke: #1f77b4"/>
     <use xlink:href="#m2dadb853f7" x="279.361225" y="26.88" style="fill: #1f77b4; stroke: #1f77b4"/>
     <use xlink:href="#m2dadb853f7" x="298.987075" y="26.88" style="fill: #1f77b4; stroke: #1f77b4"/>
     <use xlink:href="#m2dadb853f7" x="322.2941" y="26.88" style="fill: #1f77b4; stroke: #1f77b4"/>
     <use xlink:href="#m2dadb853f7" x="346.245345" y="26.88" style="fill: #1f77b4; stroke: #1f77b4"/>
     <use xlink:href="#m2dadb853f7" x="371.836702" y="28.039818" style="fill: #1f77b4; stroke: #1f77b4"/>
    </g>
   </g>
   <g id="line2d_14">
    <path d="M 103.705585 282.04 
L 125.889313 282.04 
L 148.037046 267.864444 
L 168.32435 248.018667 
L 192.167038 239.513333 
L 210.407073 196.986667 
L 234.05175 99.782857 
L 252.9772 136.234286 
L 277.058721 63.331429 
L 301.786528 48.143333 
L 323.507652 26.88 
L 346.655291 26.88 
L 372.196313 27.835655 
" clip-path="url(#p5d6dca284c)" style="fill: none; stroke: #ff7f0e; stroke-width: 1.5; stroke-linecap: square"/>
    <defs>
     <path id="mf3e637db65" d="M 0 3 
C 0.795609 3 1.55874 2.683901 2.12132 2.12132 
C 2.683901 1.55874 3 0.795609 3 0 
C 3 -0.795609 2.683901 -1.55874 2.12132 -2.12132 
C 1.55874 -2.683901 0.795609 -3 0 -3 
C -0.795609 -3 -1.55874 -2.683901 -2.12132 -2.12132 
C -2.683901 -1.55874 -3 -0.795609 -3 0 
C -3 0.795609 -2.683901 1.55874 -2.12132 2.12132 
C -1.55874 2.683901 -0.795609 3 0 3 
z
" style="stroke: #ff7f0e"/>
    </defs>
    <g clip-path="url(#p5d6dca284c)">
     <use xlink:href="#mf3e637db65" x="103.705585" y="282.04" style="fill: #ff7f0e; stroke: #ff7f0e"/>
     <use xlink:href="#mf3e637db65" x="125.889313" y="282.04" style="fill: #ff7f0e; stroke: #ff7f0e"/>
     <use xlink:href="#mf3e637db65" x="148.037046" y="267.864444" style="fill: #ff7f0e; stroke: #ff7f0e"/>
     <use xlink:href="#mf3e637db65" x="168.32435" y="248.018667" style="fill: #ff7f0e; stroke: #ff7f0e"/>
     <use xlink:href="#mf3e637db65" x="192.167038" y="239.513333" style="fill: #ff7f0e; stroke: #ff7f0e"/>
     <use xlink:href="#mf3e637db65" x="210.407073" y="196.986667" style="fill: #ff7f0e; stroke: #ff7f0e"/>
     <use xlink:href="#mf3e637db65" x="234.05175" y="99.782857" style="fill: #ff7f0e; stroke: #ff7f0e"/>
     <use xlink:href="#mf3e637db65" x="252.9772" y="136.234286" style="fill: #ff7f0e; stroke: #ff7f0e"/>
     <use xlink:href="#mf3e637db65" x="277.058721" y="63.331429" style="fill: #ff7f0e; stroke: #ff7f0e"/>
     <use xlink:href="#mf3e637db65" x="301.786528" y="48.143333" style="fill: #ff7f0e; stroke: #ff7f0e"/>
     <use xlink:href="#mf3e637db65" x="323.507652" y="26.88" style="fill: #ff7f0e; stroke: #ff7f0e"/>
     <use xlink:href="#mf3e637db65" x="346.655291" y="26.88" style="fill: #ff7f0e; stroke: #ff7f0e"/>
     <use xlink:href="#mf3e637db65" x="372.196313" y="27.835655" style="fill: #ff7f0e; stroke: #ff7f0e"/>
    </g>
   </g>
   <g id="line2d_15">
    <path d="M 47.72 282.04 
L 377.28 26.88 
" clip-path="url(#p5d6dca284c)" style="fill: none; stroke-dasharray: 5.55,2.4; stroke-dashoffset: 0; stroke: #808080; stroke-width: 1.5"/>
   </g>
   <g id="patch_3">
    <path d="M 47.72 282.04 
L 47.72 26.88 
" style="fill: none; stroke: #000000; stroke-width: 0.8; stroke-linejoin: miter; stroke-linecap: square"/>
   </g>
   <g id="patch_4">
    <path d="M 377.28 282.04 
L 377.28 26.88 
" style="fill: none; stroke: #000000; stroke-width: 0.8; stroke-linejoin: miter; stroke-linecap: square"/>
   </g>
   <g id="patch_5">
    <path d="M 47.72 282.04 
L 377.28 282.04 
" style="fill: none; stroke: #000000; stroke-width: 0.8; stroke-linejoin: miter; stroke-linecap: square"/>
   </g>
   <g id="patch_6">
    <path d="M 47.72 26.88 
L 377.28 26.88 
" style="fill: none; stroke: #000000; stroke-width: 0.8; stroke-linejoin: miter; stroke-linecap: square"/>
   </g>
   <g id="text_15">
    <text style="font: 12px 'DejaVu Sans', 'Bitstream Vera Sans', 'Computer Modern Sans Serif', 'Lucida Grande', 'Verdana', 'Geneva', 'Lucid', 'Arial', 'Helvetica', 'Avant Garde', sans-serif; text-anchor: middle" x="212.5" y="20.88" transform="rotate(-0 212.5 20.88)">FF++ val: video calibration (15 bins)</text>
   </g>
   <g id="legend_1">
    <g id="patch_7">
     <path d="M 54.72 64.23625 
L 138.396563 64.23625 
Q 140.396563 64.23625 140.396563 62.23625 
L 140.396563 33.88 
Q 140.396563 31.88 138.396563 31.88 
L 54.72 31.88 
Q 52.72 31.88 52.72 33.88 
L 52.72 62.23625 
Q 52.72 64.23625 54.72 64.23625 
z
" style="fill: #ffffff; opacity: 0.8; stroke: #cccccc; stroke-linejoin: miter"/>
    </g>
    <g id="line2d_16">
     <path d="M 56.72 39.978437 
L 66.72 39.978437 
L 76.72 39.978437 
" style="fill: none; stroke: #1f77b4; stroke-width: 1.5; stroke-linecap: square"/>
     <g>
      <use xlink:href="#m2dadb853f7" x="66.72" y="39.978437" style="fill: #1f77b4; stroke: #1f77b4"/>
     </g>
    </g>
    <g id="text_16">
     <text style="font: 10px 'DejaVu Sans', 'Bitstream Vera Sans', 'Computer Modern Sans Serif', 'Lucida Grande', 'Verdana', 'Geneva', 'Lucid', 'Arial', 'Helvetica', 'Avant Garde', sans-serif; text-anchor: start" x="84.72" y="43.478437" transform="rotate(-0 84.72 43.478437)">Raw</text>
    </g>
    <g id="line2d_17">
     <path d="M 56.72 54.656563 
L 66.72 54.656563 
L 76.72 54.656563 
" style="fill: none; stroke: #ff7f0e; stroke-width: 1.5; stroke-linecap: square"/>
     <g>
      <use xlink:href="#mf3e637db65" x="66.72" y="54.656563" style="fill: #ff7f0e; stroke: #ff7f0e"/>
     </g>
    </g>
    <g id="text_17">
     <text style="font: 10px 'DejaVu Sans', 'Bitstream Vera Sans', 'Computer Modern Sans Serif', 'Lucida Grande', 'Verdana', 'Geneva', 'Lucid', 'Arial', 'Helvetica', 'Avant Garde', sans-serif; text-anchor: start" x="84.72" y="58.156563" transform="rotate(-0 84.72 58.156563)">Calibrated</text>
    </g>
   </g>
  </g>
 </g>
 <defs>
  <clipPath id="p5d6dca284c">
   <rect x="47.72" y="26.88" width="329.56" height="255.16"/>
  </clipPath>
 </defs>
</svg>
