<?xml version="1.0" encoding="utf-8" standalone="no"?>
<!DOCTYPE svg PUBLIC "-//W3C//DTD SVG 1.1//EN"
  "http://www.w3.org/Graphics/SVG/1.1/DTD/svg11.dtd">
<svg xmlns:xlink="http://www.w3.org/1999/xlink" width="396pt" height="324pt" viewBox="0 0 396 324" xmlns="http://www.w3.org/2000/svg" version="1.1">
 <metadata>
  <rdf:RDF xmlns:dc="http://purl.org/dc/elements/1.1/" xmlns:cc="http://creativecommons.org/ns#" xmlns:rdf="http://www.w3.org/1999/02/22-rdf-syntax-ns#">
   <cc:Work>
    <dc:type rdf:resource="http://purl.org/dc/dcmitype/StillImage"/>
    <dc:format>image/svg+xml</dc:format>
    <dc:creator>
     <cc:Agent>
      <dc:title>Matplotlib v3.9.2, https://matplotlib.org/</dc:title>
     </cc:Agent>
    </dc:creator>
   </cc:Work>
  </rdf:RDF>
 </metadata>
 <defs>
  <style type="text/css">*{stroke-linejoin: round; stroke-linecap: butt}</style>
 </defs>
 <g id="figure_1">
  <g id="patch_1">
   <path d="M 0 324 
L 396 324 
L 396 0 
L 0 0 
z
" style="fill: #ffffff"/>
  </g>
  <g id="axes_1">
   <g id="patch_2">
    <path d="M 47.72 282.04 
L 377.28 282.04 
L 377.28 26.88 
L 47.72 26.88 
z
" style="fill: #ffffff"/>
   </g>
   <g id="matplotlib.axis_1">
    <g id="xtick_1">
     <g id="line2d_1">
      <defs>
       <path id="m4c0b9cfe3f" d="M 0 0 
L 0 3.5 
" style="stroke: #000000; stroke-width: 0.8"/>
      </defs>
      <g>
       <use xlink:href="#m4c0b9cfe3f" x="47.72" y="282.04" style="stroke: #000000; stroke-width: 0.8"/>
      </g>
     </g>
     <g id="text_1">
      <text style="font: 10px 'DejaVu Sans', 'Bitstream Vera Sans', 'Computer Modern Sans Serif', 'Lucida Grande', 'Verdana', 'Geneva', 'Lucid', 'Arial', 'Helvetica', 'Avant Garde', sans-serif; text-anchor: middle" x="47.72" y="296.638438" transform="rotate(-0 47.72 296.638438)">0.0</text>
     </g>
    </g>
    <g id="xtick_2">
     <g id="line2d_2">
      <g>
       <use xlink:href="#m4c0b9cfe3f" x="113.632" y="282.04" style="stroke: #000000; stroke-width: 0.8"/>
      </g>
     </g>
     <g id="text_2">
      <text style="font: 10px 'DejaVu Sans', 'Bitstream Vera Sans', 'Computer Modern Sans Serif', 'Lucida Grande', 'Verdana', 'Geneva', 'Lucid', 'Arial', 'Helvetica', 'Avant Garde', sans-serif; text-anchor: middle" x="113.632" y="296.638438" transform="rotate(-0 113.632 296.638438)">0.2</text>
     </g>
    </g>
    <g id="xtick_3">
     <g id="line2d_3">
      <g>
       <use xlink:href="#m4c0b9cfe3f" x="179.544" y="282.04" style="stroke: #000000; stroke-width: 0.8"/>
      </g>
     </g>
     <g id="text_3">
      <text style="font: 10px 'DejaVu Sans', 'Bitstream Vera Sans', 'Computer Modern Sans Serif', 'Lucida Grande', 'Verdana', 'Geneva', 'Lucid', 'Arial', 'Helvetica', 'Avant Garde', sans-serif; text-anchor: middle" x="179.544" y="296.638438" transform="rotate(-0 179.544 296.638438)">0.4</text>
     </g>
    </g>
    <g id="xtick_4">
     <g id="line2d_4">
      <g>
       <use xlink:href="#m4c0b9cfe3f" x="245.456" y="282.04" style="stroke: #000000; stroke-width: 0.8"/>
      </g>
     </g>
     <g id="text_4">
      <text style="font: 10px 'DejaVu Sans', 'Bitstream Vera Sans', 'Computer Modern Sans Serif', 'Lucida Grande', 'Verdana', 'Geneva', 'Lucid', 'Arial', 'Helvetica', 'Avant Garde', sans-serif; text-anchor: middle" x="245.456" y="296.638438" transform="rotate(-0 245.456 296.638438)">0.6</text>
     </g>
    </g>
    <g id="xtick_5">
     <g id="line2d_5">
      <g>
       <use xlink:href="#m4c0b9cfe3f" x="311.368" y="282.04" style="stroke: #000000; stroke-width: 0.8"/>
      </g>
     </g>
     <g id="text_5">
      <text style="font: 10px 'DejaVu Sans', 'Bitstream Vera Sans', 'Computer Modern Sans Serif', 'Lucida Grande', 'Verdana', 'Geneva', 'Lucid', 'Arial', 'Helvetica', 'Avant Garde', sans-serif; text-anchor: middle" x="311.368" y="296.638438" transform="rotate(-0 311.368 296.638438)">0.8</text>
     </g>
    </g>
    <g id="xtick_6">
     <g id="line2d_6">
      <g>
       <use xlink:href="#m4c0b9cfe3f" x="377.28" y="282.04" style="stroke: #000000; stroke-width: 0.8"/>
      </g>
     </g>
     <g id="text_6">
      <text style="font: 10px 'DejaVu Sans', 'Bitstream Vera Sans', 'Computer Modern Sans Serif', 'Lucida Grande', 'Verdana', 'Geneva', 'Lucid', 'Arial', 'Helvetica', 'Avant Garde', sans-serif; text-anchor: middle" x="377.28" y="296.638438" transform="rotate(-0 377.28 296.638438)">1.0</text>
     </g>
    </g>
    <g id="text_7">
     <text style="font: 10px 'DejaVu Sans', 'Bitstream Vera Sans', 'Computer Modern Sans Serif', 'Lucida Grande', 'Verdana', 'Geneva', 'Lucid', 'Arial', 'Helvetica', 'Avant Garde', sans-serif; text-anchor: middle" x="212.5" y="310.316563" transform="rotate(-0 212.5 310.316563)">Mean predicted fake probability</text>
    </g>
   </g>
   <g id="matplotlib.axis_2">
    <g id="ytick_1">
     <g id="line2d_7">
      <defs>
       <path id="m74c0a1dd85" d="M 0 0 
L -3.5 0 
" style="stroke: #000000; stroke-width: 0.8"/>
      </defs>
      <g>
       <use xlink:href="#m74c0a1dd85" x="47.72" y="282.04" style="stroke: #000000; stroke-width: 0.8"/>
      </g>
     </g>
     <g id="text_8">
      <text style="font: 10px 'DejaVu Sans', 'Bitstream Vera Sans', 'Computer Modern Sans Serif', 'Lucida Grande', 'Verdana', 'Geneva', 'Lucid', 'Arial', 'Helvetica', 'Avant Garde', sans-serif; text-anchor: end" x="40.72" y="285.839219" transform="rotate(-0 40.72 285.839219)">0.0</text>
     </g>
    </g>
    <g id="ytick_2">
     <g id="line2d_8">
      <g>
       <use xlink:href="#m74c0a1dd85" x="47.72" y="231.008" style="stroke: #000000; stroke-width: 0.8"/>
      </g>
     </g>
     <g id="text_9">
      <text style="font: 10px 'DejaVu Sans', 'Bitstream Vera Sans', 'Computer Modern Sans Serif', 'Lucida Grande', 'Verdana', 'Geneva', 'Lucid', 'Arial', 'Helvetica', 'Avant Garde', sans-serif; text-anchor: end" x="40.72" y="234.807219" transform="rotate(-0 40.72 234.807219)">0.2</text>
     </g>
    </g>
    <g id="ytick_3">
     <g id="line2d_9">
      <g>
       <use xlink:href="#m74c0a1dd85" x="47.72" y="179.976" style="stroke: #000000; stroke-width: 0.8"/>
      </g>
     </g>
     <g id="text_10">
      <text style="font: 10px 'DejaVu Sans', 'Bitstream Vera Sans', 'Computer Modern Sans Serif', 'Lucida Grande', 'Verdana', 'Geneva', 'Lucid', 'Arial', 'Helvetica', 'Avant Garde', sans-serif; text-anchor: end" x="40.72" y="183.775219" transform="rotate(-0 40.72 183.775219)">0.4</text>
     </g>
    </g>
    <g id="ytick_4">
     <g id="line2d_10">
      <g>
       <use xlink:href="#m74c0a1dd85" x="47.72" y="128.944" style="stroke: #000000; stroke-width: 0.8"/>
      </g>
     </g>
     <g id="text_11">
      <text style="font: 10px 'DejaVu Sans', 'Bitstream Vera Sans', 'Computer Modern Sans Serif', 'Lucida Grande', 'Verdana', 'Geneva', 'Lucid', 'Arial', 'Helvetica', 'Avant Garde', sans-serif; text-anchor: end" x="40.72" y="132.743219" transform="rotate(-0 40.72 132.743219)">0.6</text>
     </g>
    </g>
    <g id="ytick_5">
     <g id="line2d_11">
      <g>
       <use xlink:href="#m74c0a1dd85" x="47.72" y="77.912" style="stroke: #000000; stroke-width: 0.8"/>
      </g>
     </g>
     <g id="text_12">
      <text style="font: 10px 'DejaVu Sans', 'Bitstream Vera Sans', 'Computer Modern Sans Serif', 'Lucida Grande', 'Verdana', 'Geneva', 'Lucid', 'Arial', 'Helvetica', 'Avant Garde', sans-serif; text-anchor: end" x="40.72" y="81.711219" transform="rotate(-0 40.72 81.711219)">0.8</text>
     </g>
    </g>
    <g id="ytick_6">
     <g id="line2d_12">
      <g>
       <use xlink:href="#m74c0a1dd85" x="47.72" y="26.88" style="stroke: #000000; stroke-width: 0.8"/>
      </g>
     </g>
     <g id="text_13">
      <text style="font: 10px 'DejaVu Sans', 'Bitstream Vera Sans', 'Computer Modern Sans Serif', 'Lucida Grande', 'Verdana', 'Geneva', 'Lucid', 'Arial', 'Helvetica', 'Avant Garde', sans-serif; text-anchor: end" x="40.72" y="30.679219" transform="rotate(-0 40.72 30.679219)">1.0</text>
     </g>
    </g>
    <g id="text_14">
     <text style="font: 10px 'DejaVu Sans', 'Bitstream Vera Sans', 'Computer Modern Sans Serif', 'Lucida Grande', 'Verdana', 'Geneva', 'Lucid', 'Arial', 'Helvetica', 'Avant Garde', sans-serif; text-anchor: middle" x="18.737188" y="154.46" transform="rotate(-90 18.737188 154.46)">Observed fake fraction</text>
    </g>
   </g>
   <g id="line2d_13">
    <path d="M 63.326021 32.251789 
L 81.537613 33.746912 
L 103.326893 34.184198 
L 124.947636 35.456807 
L 146.969681 33.439727 
L 169.185085 34.818311 
L 190.767109 34.148553 
L 212.819595 33.572721 
L 234.603859 32.33109 
L 256.550707 32.212666 
L 278.489554 31.513656 
L 300.390829 30.475209 
L 322.372106 29.919342 
L 344.655143 28.803317 
L 367.298061 27.454254 
" clip-path="url(#p5d6dca284c)" style="fill: none; stroke: #1f77b4; stroke-width: 1.5; stroke-linecap: square"/>
    <defs>
     <path id="m2dadb853f7" d="M 0 3 
C 0.795609 3 1.55874 2.683901 2.12132 2.12132 
C 2.683901 1.55874 3 0.795609 3 0 
C 3 -0.795609 2.683901 -1.55874 2.12132 -2.12132 
C 1.55874 -2.683901 0.795609 -3 0 -3 
C -0.795609 -3 -1.55874 -2.683901 -2.12132 -2.12132 
C -2.683901 -1.55874 -3 -0.795609 -3 0 
C -3 0.795609 -2.683901 1.55874 -2.12132 2.12132 
C -1.55874 2.683901 -0.795609 3 0 3 
z
" style="stroke: #1f77b4"/>
    </defs>
    <g clip-path="url(#p5d6dca284c)">
     <use xlink:href="#m2dadb853f7" x="63.326021" y="32.251789" style="fill: #1f77b4; stroke: #1f77b4"/>
     <use xlink:href="#m2dadb853f7" x="81.537613" y="33.746912" style="fill: #1f77b4; stroke: #1f77b4"/>
     <use xlink:href="#m2dadb853f7" x="103.326893" y="34.184198" style="fill: #1f77b4; stroke: #1f77b4"/>
     <use xlink:href="#m2dadb853f7" x="124.947636" y="35.456807" style="fill: #1f77b4; stroke: #1f77b4"/>
     <use xlink:href="#m2dadb853f7" x="146.969681" y="33.439727" style="fill: #1f77b4; stroke: #1f77b4"/>
     <use xlink:href="#m2dadb853f7" x="169.185085" y="34.818311" style="fill: #1f77b4; stroke: #1f77b4"/>
     <use xlink:href="#m2dadb853f7" x="190.767109" y="34.148553" style="fill: #1f77b4; stroke: #1f77b4"/>
     <use xlink:href="#m2dadb853f7" x="212.819595" y="33.572721" style="fill: #1f77b4; stroke: #1f77b4"/>
     <use xlink:href="#m2dadb853f7" x="234.603859" y="32.33109" style="fill: #1f77b4; stroke: #1f77b4"/>
     <use xlink:href="#m2dadb853f7" x="256.550707" y="32.212666" style="fill: #1f77b4; stroke: #1f77b4"/>
     <use xlink:href="#m2dadb853f7" x="278.489554" y="31.513656" style="fill: #1f77b4; stroke: #1f77b4"/>
     <use xlink:href="#m2dadb853f7" x="300.390829" y="30.475209" style="fill: #1f77b4; stroke: #1f77b4"/>
     <use xlink:href="#m2dadb853f7" x="322.372106" y="29.919342" style="fill: #1f77b4; stroke: #1f77b4"/>
     <use xlink:href="#m2dadb853f7" x="344.655143" y="28.803317" style="fill: #1f77b4; stroke: #1f77b4"/>
     <use xlink:href="#m2dadb853f7" x="367.298061" y="27.454254" style="fill: #1f77b4; stroke: #1f77b4"/>
    </g>
   </g>
   <g id="line2d_14">
    <path d="M 84.816059 29.917619 
L 103.790721 31.920198 
L 125.397298 35.270912 
L 147.468498 36.257253 
L 169.192386 34.880927 
L 191.031567 35.12685 
L 213.056609 34.675112 
L 234.863263 33.973302 
L 256.69913 32.898414 
L 278.723163 31.866134 
L 300.554808 31.295772 
L 322.38889 29.857055 
L 344.567261 29.142908 
L 366.091546 27.464239 
" clip-path="url(#p5d6dca284c)" style="fill: none; stroke: #ff7f0e; stroke-width: 1.5; stroke-linecap: square"/>
    <defs>
     <path id="mf3e637db65" d="M 0 3 
C 0.795609 3 1.55874 2.683901 2.12132 2.12132 
C 2.683901 1.55874 3 0.795609 3 0 
C 3 -0.795609 2.683901 -1.55874 2.12132 -2.12132 
C 1.55874 -2.683901 0.795609 -3 0 -3 
C -0.795609 -3 -1.55874 -2.683901 -2.12132 -2.12132 
C -2.683901 -1.55874 -3 -0.795609 -3 0 
C -3 0.795609 -2.683901 1.55874 -2.12132 2.12132 
C -1.55874 2.683901 -0.795609 3 0 3 
z
" style="stroke: #ff7f0e"/>
    </defs>
    <g clip-path="url(#p5d6dca284c)">
     <use xlink:href="#mf3e637db65" x="84.816059" y="29.917619" style="fill: #ff7f0e; stroke: #ff7f0e"/>
     <use xlink:href="#mf3e637db65" x="103.790721" y="31.920198" style="fill: #ff7f0e; stroke: #ff7f0e"/>
     <use xlink:href="#mf3e637db65" x="125.397298" y="35.270912" style="fill: #ff7f0e; stroke: #ff7f0e"/>
     <use xlink:href="#mf3e637db65" x="147.468498" y="36.257253" style="fill: #ff7f0e; stroke: #ff7f0e"/>
     <use xlink:href="#mf3e637db65" x="169.192386" y="34.880927" style="fill: #ff7f0e; stroke: #ff7f0e"/>
     <use xlink:href="#mf3e637db65" x="191.031567" y="35.12685" style="fill: #ff7f0e; stroke: #ff7f0e"/>
     <use xlink:href="#mf3e637db65" x="213.056609" y="34.675112" style="fill: #ff7f0e; stroke: #ff7f0e"/>
     <use xlink:href="#mf3e637db65" x="234.863263" y="33.973302" style="fill: #ff7f0e; stroke: #ff7f0e"/>
     <use xlink:href="#mf3e637db65" x="256.69913" y="32.898414" style="fill: #ff7f0e; stroke: #ff7f0e"/>
     <use xlink:href="#mf3e637db65" x="278.723163" y="31.866134" style="fill: #ff7f0e; stroke: #ff7f0e"/>
     <use xlink:href="#mf3e637db65" x="300.554808" y="31.295772" style="fill: #ff7f0e; stroke: #ff7f0e"/>
     <use xlink:href="#mf3e637db65" x="322.38889" y="29.857055" style="fill: #ff7f0e; stroke: #ff7f0e"/>
     <use xlink:href="#mf3e637db65" x="344.567261" y="29.142908" style="fill: #ff7f0e; stroke: #ff7f0e"/>
     <use xlink:href="#mf3e637db65" x="366.091546" y="27.464239" style="fill: #ff7f0e; stroke: #ff7f0e"/>
    </g>
   </g>
   <g id="line2d_15">
    <path d="M 47.72 282.04 
L 377.28 26.88 
" clip-path="url(#p5d6dca284c)" style="fill: none; stroke-dasharray: 5.55,2.4; stroke-dashoffset: 0; stroke: #808080; stroke-width: 1.5"/>
   </g>
   <g id="patch_3">
    <path d="M 47.72 282.04 
L 47.72 26.88 
" style="fill: none; stroke: #000000; stroke-width: 0.8; stroke-linejoin: miter; stroke-linecap: square"/>
   </g>
   <g id="patch_4">
    <path d="M 377.28 282.04 
L 377.28 26.88 
" style="fill: none; stroke: #000000; stroke-width: 0.8; stroke-linejoin: miter; stroke-linecap: square"/>
   </g>
   <g id="patch_5">
    <path d="M 47.72 282.04 
L 377.28 282.04 
" style="fill: none; stroke: #000000; stroke-width: 0.8; stroke-linejoin: miter; stroke-linecap: square"/>
   </g>
   <g id="patch_6">
    <path d="M 47.72 26.88 
L 377.28 26.88 
" style="fill: none; stroke: #000000; stroke-width: 0.8; stroke-linejoin: miter; stroke-linecap: square"/>
   </g>
   <g id="text_15">
    <text style="font: 12px 'DejaVu Sans', 'Bitstream Vera Sans', 'Computer Modern Sans Serif', 'Lucida Grande', 'Verdana', 'Geneva', 'Lucid', 'Arial', 'Helvetica', 'Avant Garde', sans-serif; text-anchor: middle" x="212.5" y="20.88" transform="rotate(-0 212.5 20.88)">Celeb-DF++ external: video calibration (15 bins)</text>
   </g>
   <g id="legend_1">
    <g id="patch_7">
     <path d="M 286.603437 277.04 
L 370.28 277.04 
Q 372.28 277.04 372.28 275.04 
L 372.28 246.68375 
Q 372.28 244.68375 370.28 244.68375 
L 286.603437 244.68375 
Q 284.603437 244.68375 284.603437 246.68375 
L 284.603437 275.04 
Q 284.603437 277.04 286.603437 277.04 
z
" style="fill: #ffffff; opacity: 0.8; stroke: #cccccc; stroke-linejoin: miter"/>
    </g>
    <g id="line2d_16">
     <path d="M 288.603437 252.782188 
L 298.603437 252.782188 
L 308.603437 252.782188 
" style="fill: none; stroke: #1f77b4; stroke-width: 1.5; stroke-linecap: square"/>
     <g>
      <use xlink:href="#m2dadb853f7" x="298.603437" y="252.782188" style="fill: #1f77b4; stroke: #1f77b4"/>
     </g>
    </g>
    <g id="text_16">
     <text style="font: 10px 'DejaVu Sans', 'Bitstream Vera Sans', 'Computer Modern Sans Serif', 'Lucida Grande', 'Verdana', 'Geneva', 'Lucid', 'Arial', 'Helvetica', 'Avant Garde', sans-serif; text-anchor: start" x="316.603437" y="256.282188" transform="rotate(-0 316.603437 256.282188)">Raw</text>
    </g>
    <g id="line2d_17">
     <path d="M 288.603437 267.460312 
L 298.603437 267.460312 
L 308.603437 267.460312 
" style="fill: none; stroke: #ff7f0e; stroke-width: 1.5; stroke-linecap: square"/>
     <g>
      <use xlink:href="#mf3e637db65" x="298.603437" y="267.460312" style="fill: #ff7f0e; stroke: #ff7f0e"/>
     </g>
    </g>
    <g id="text_17">
     <text style="font: 10px 'DejaVu Sans', 'Bitstream Vera Sans', 'Computer Modern Sans Serif', 'Lucida Grande', 'Verdana', 'Geneva', 'Lucid', 'Arial', 'Helvetica', 'Avant Garde', sans-serif; text-anchor: start" x="316.603437" y="270.960312" transform="rotate(-0 316.603437 270.960312)">Calibrated</text>
    </g>
   </g>
  </g>
 </g>
 <defs>
  <clipPath id="p5d6dca284c">
   <rect x="47.72" y="26.88" width="329.56" height="255.16"/>
  </clipPath>
 </defs>
</svg>
