<?xml version="1.0" encoding="utf-8" standalone="no"?>
<!DOCTYPE svg PUBLIC "-//W3C//DTD SVG 1.1//EN"
  "http://www.w3.org/Graphics/SVG/1.1/DTD/svg11.dtd">
<svg xmlns:xlink="http://www.w3.org/1999/xlink" width="396pt" height="324pt" viewBox="0 0 396 324" xmlns="http://www.w3.org/2000/svg" version="1.1">
 <metadata>
  <rdf:RDF xmlns:dc="http://purl.org/dc/elements/1.1/" xmlns:cc="http://creativecommons.org/ns#" xmlns:rdf="http://www.w3.org/1999/02/22-rdf-syntax-ns#">
   <cc:Work>
    <dc:type rdf:resource="http://purl.org/dc/dcmitype/StillImage"/>
    <dc:format>image/svg+xml</dc:format>
    <dc:creator>
     <cc:Agent>
      <dc:title>Matplotlib v3.9.2, https://matplotlib.org/</dc:title>
     </cc:Agent>
    </dc:creator>
   </cc:Work>
  </rdf:RDF>
 </metadata>
 <defs>
  <style type="text/css">*{stroke-linejoin: round; stroke-linecap: butt}</style>
 </defs>
 <g id="figure_1">
  <g id="patch_1">
   <path d="M 0 324 
L 396 324 
L 396 0 
L 0 0 
z
" style="fill: #ffffff"/>
  </g>
  <g id="axes_1">
   <g id="patch_2">
    <path d="M 47.72 282.04 
L 377.28 282.04 
L 377.28 26.88 
L 47.72 26.88 
z
" style="fill: #ffffff"/>
   </g>
   <g id="matplotlib.axis_1">
    <g id="xtick_1">
     <g id="line2d_1">
      <defs>
       <path id="m4c0b9cfe3f" d="M 0 0 
L 0 3.5 
" style="stroke: #000000; stroke-width: 0.8"/>
      </defs>
      <g>
       <use xlink:href="#m4c0b9cfe3f" x="47.72" y="282.04" style="stroke: #000000; stroke-width: 0.8"/>
      </g>
     </g>
     <g id="text_1">
      <text style="font: 10px 'DejaVu Sans', 'Bitstream Vera Sans', 'Computer Modern Sans Serif', 'Lucida Grande', 'Verdana', 'Geneva', 'Lucid', 'Arial', 'Helvetica', 'Avant Garde', sans-serif; text-anchor: middle" x="47.72" y="296.638438" transform="rotate(-0 47.72 296.638438)">0.0</text>
     </g>
    </g>
    <g id="xtick_2">
     <g id="line2d_2">
      <g>
       <use xlink:href="#m4c0b9cfe3f" x="113.632" y="282.04" style="stroke: #000000; stroke-width: 0.8"/>
      </g>
     </g>
     <g id="text_2">
      <text style="font: 10px 'DejaVu Sans', 'Bitstream Vera Sans', 'Computer Modern Sans Serif', 'Lucida Grande', 'Verdana', 'Geneva', 'Lucid', 'Arial', 'Helvetica', 'Avant Garde', sans-serif; text-anchor: middle" x="113.632" y="296.638438" transform="rotate(-0 113.632 296.638438)">0.2</text>
     </g>
    </g>
    <g id="xtick_3">
     <g id="line2d_3">
      <g>
       <use xlink:href="#m4c0b9cfe3f" x="179.544" y="282.04" style="stroke: #000000; stroke-width: 0.8"/>
      </g>
     </g>
     <g id="text_3">
      <text style="font: 10px 'DejaVu Sans', 'Bitstream Vera Sans', 'Computer Modern Sans Serif', 'Lucida Grande', 'Verdana', 'Geneva', 'Lucid', 'Arial', 'Helvetica', 'Avant Garde', sans-serif; text-anchor: middle" x="179.544" y="296.638438" transform="rotate(-0 179.544 296.638438)">0.4</text>
     </g>
    </g>
    <g id="xtick_4">
     <g id="line2d_4">
      <g>
       <use xlink:href="#m4c0b9cfe3f" x="245.456" y="282.04" style="stroke: #000000; stroke-width: 0.8"/>
      </g>
     </g>
     <g id="text_4">
      <text style="font: 10px 'DejaVu Sans', 'Bitstream Vera Sans', 'Computer Modern Sans Serif', 'Lucida Grande', 'Verdana', 'Geneva', 'Lucid', 'Arial', 'Helvetica', 'Avant Garde', sans-serif; text-anchor: middle" x="245.456" y="296.638438" transform="rotate(-0 245.456 296.638438)">0.6</text>
     </g>
    </g>
    <g id="xtick_5">
     <g id="line2d_5">
      <g>
       <use xlink:href="#m4c0b9cfe3f" x="311.368" y="282.04" style="stroke: #000000; stroke-width: 0.8"/>
      </g>
     </g>
     <g id="text_5">
      <text style="font: 10px 'DejaVu Sans', 'Bitstream Vera Sans', 'Computer Modern Sans Serif', 'Lucida Grande', 'Verdana', 'Geneva', 'Lucid', 'Arial', 'Helvetica', 'Avant Garde', sans-serif; text-anchor: middle" x="311.368" y="296.638438" transform="rotate(-0 311.368 296.638438)">0.8</text>
     </g>
    </g>
    <g id="xtick_6">
     <g id="line2d_6">
      <g>
       <use xlink:href="#m4c0b9cfe3f" x="377.28" y="282.04" style="stroke: #000000; stroke-width: 0.8"/>
      </g>
     </g>
     <g id="text_6">
      <text style="font: 10px 'DejaVu Sans', 'Bitstream Vera Sans', 'Computer Modern Sans Serif', 'Lucida Grande', 'Verdana', 'Geneva', 'Lucid', 'Arial', 'Helvetica', 'Avant Garde', sans-serif; text-anchor: middle" x="377.28" y="296.638438" transform="rotate(-0 377.28 296.638438)">1.0</text>
     </g>
    </g>
    <g id="text_7">
     <text style="font: 10px 'DejaVu Sans', 'Bitstream Vera Sans', 'Computer Modern Sans Serif', 'Lucida Grande', 'Verdana', 'Geneva', 'Lucid', 'Arial', 'Helvetica', 'Avant Garde', sans-serif; text-anchor: middle" x="212.5" y="310.316563" transform="rotate(-0 212.5 310.316563)">Mean predicted fake probability</text>
    </g>
   </g>
   <g id="matplotlib.axis_2">
    <g id="ytick_1">
     <g id="line2d_7">
      <defs>
       <path id="m74c0a1dd85" d="M 0 0 
L -3.5 0 
" style="stroke: #000000; stroke-width: 0.8"/>
      </defs>
      <g>
       <use xlink:href="#m74c0a1dd85" x="47.72" y="282.04" style="stroke: #000000; stroke-width: 0.8"/>
      </g>
     </g>
     <g id="text_8">
      <text style="font: 10px 'DejaVu Sans', 'Bitstream Vera Sans', 'Computer Modern Sans Serif', 'Lucida Grande', 'Verdana', 'Geneva', 'Lucid', 'Arial', 'Helvetica', 'Avant Garde', sans-serif; text-anchor: end" x="40.72" y="285.839219" transform="rotate(-0 40.72 285.839219)">0.0</text>
     </g>
    </g>
    <g id="ytick_2">
     <g id="line2d_8">
      <g>
       <use xlink:href="#m74c0a1dd85" x="47.72" y="231.008" style="stroke: #000000; stroke-width: 0.8"/>
      </g>
     </g>
     <g id="text_9">
      <text style="font: 10px 'DejaVu Sans', 'Bitstream Vera Sans', 'Computer Modern Sans Serif', 'Lucida Grande', 'Verdana', 'Geneva', 'Lucid', 'Arial', 'Helvetica', 'Avant Garde', sans-serif; text-anchor: end" x="40.72" y="234.807219" transform="rotate(-0 40.72 234.807219)">0.2</text>
     </g>
    </g>
    <g id="ytick_3">
     <g id="line2d_9">
      <g>
       <use xlink:href="#m74c0a1dd85" x="47.72" y="179.976" style="stroke: #000000; stroke-width: 0.8"/>
      </g>
     </g>
     <g id="text_10">
      <text style="font: 10px 'DejaVu Sans', 'Bitstream Vera Sans', 'Computer Modern Sans Serif', 'Lucida Grande', 'Verdana', 'Geneva', 'Lucid', 'Arial', 'Helvetica', 'Avant Garde', sans-serif; text-anchor: end" x="40.72" y="183.775219" transform="rotate(-0 40.72 183.775219)">0.4</text>
     </g>
    </g>
    <g id="ytick_4">
     <g id="line2d_10">
      <g>
       <use xlink:href="#m74c0a1dd85" x="47.72" y="128.944" style="stroke: #000000; stroke-width: 0.8"/>
      </g>
     </g>
     <g id="text_11">
      <text style="font: 10px 'DejaVu Sans', 'Bitstream Vera Sans', 'Computer Modern Sans Serif', 'Lucida Grande', 'Verdana', 'Geneva', 'Lucid', 'Arial', 'Helvetica', 'Avant Garde', sans-serif; text-anchor: end" x="40.72" y="132.743219" transform="rotate(-0 40.72 132.743219)">0.6</text>
     </g>
    </g>
    <g id="ytick_5">
     <g id="line2d_11">
      <g>
       <use xlink:href="#m74c0a1dd85" x="47.72" y="77.912" style="stroke: #000000; stroke-width: 0.8"/>
      </g>
     </g>
     <g id="text_12">
      <text style="font: 10px 'DejaVu Sans', 'Bitstream Vera Sans', 'Computer Modern Sans Serif', 'Lucida Grande', 'Verdana', 'Geneva', 'Lucid', 'Arial', 'Helvetica', 'Avant Garde', sans-serif; text-anchor: end" x="40.72" y="81.711219" transform="rotate(-0 40.72 81.711219)">0.8</text>
     </g>
    </g>
    <g id="ytick_6">
     <g id="line2d_12">
      <g>
       <use xlink:href="#m74c0a1dd85" x="47.72" y="26.88" style="stroke: #000000; stroke-width: 0.8"/>
      </g>
     </g>
     <g id="text_13">
      <text style="font: 10px 'DejaVu Sans', 'Bitstream Vera Sans', 'Computer Modern Sans Serif', 'Lucida Grande', 'Verdana', 'Geneva', 'Lucid', 'Arial', 'Helvetica', 'Avant Garde', sans-serif; text-anchor: end" x="40.72" y="30.679219" transform="rotate(-0 40.72 30.679219)">1.0</text>
     </g>
    </g>
    <g id="text_14">
     <text style="font: 10px 'DejaVu Sans', 'Bitstream Vera Sans', 'Computer Modern Sans Serif', 'Lucida Grande', 'Verdana', 'Geneva', 'Lucid', 'Arial', 'Helvetica', 'Avant Garde', sans-serif; text-anchor: middle" x="18.737188" y="154.46" transform="rotate(-90 18.737188 154.46)">Observed fake fraction</text>
    </g>
   </g>
   <g id="line2d_13">
    <path d="M 62.324959 277.314815 
L 79.32507 268.610526 
L 101.754283 223.156923 
L 123.464822 196.986667 
L 146.029294 162.965333 
L 171.239126 83.582222 
L 192.039853 125.018462 
L 211.453774 26.88 
L 233.666595 41.055556 
L 257.401787 26.88 
L 277.158969 39.638 
L 302.112462 26.88 
L 323.066017 26.88 
L 344.80531 26.88 
L 370.89204 26.88 
" clip-path="url(#p5d6dca284c)" style="fill: none; stroke: #1f77b4; stroke-width: 1.5; stroke-linecap: square"/>
    <defs>
     <path id="m2dadb853f7" d="M 0 3 
C 0.795609 3 1.55874 2.683901 2.12132 2.12132 
C 2.683901 1.55874 3 0.795609 3 0 
C 3 -0.795609 2.683901 -1.55874 2.12132 -2.12132 
C 1.55874 -2.683901 0.795609 -3 0 -3 
C -0.795609 -3 -1.55874 -2.683901 -2.12132 -2.12132 
C -2.683901 -1.55874 -3 -0.795609 -3 0 
C -3 0.795609 -2.683901 1.55874 -2.12132 2.12132 
C -1.55874 2.683901 -0.795609 3 0 3 
z
" style="stroke: #1f77b4"/>
    </defs>
    <g clip-path="url(#p5d6dca284c)">
     <use xlink:href="#m2dadb853f7" x="62.324959" y="277.314815" style="fill: #1f77b4; stroke: #1f77b4"/>
     <use xlink:href="#m2dadb853f7" x="79.32507" y="268.610526" style="fill: #1f77b4; stroke: #1f77b4"/>
     <use xlink:href="#m2dadb853f7" x="101.754283" y="223.156923" style="fill: #1f77b4; stroke: #1f77b4"/>
     <use xlink:href="#m2dadb853f7" x="123.464822" y="196.986667" style="fill: #1f77b4; stroke: #1f77b4"/>
     <use xlink:href="#m2dadb853f7" x="146.029294" y="162.965333" style="fill: #1f77b4; stroke: #1f77b4"/>
     <use xlink:href="#m2dadb853f7" x="171.239126" y="83.582222" style="fill: #1f77b4; stroke: #1f77b4"/>
     <use xlink:href="#m2dadb853f7" x="192.039853" y="125.018462" style="fill: #1f77b4; stroke: #1f77b4"/>
     <use xlink:href="#m2dadb853f7" x="211.453774" y="26.88" style="fill: #1f77b4; stroke: #1f77b4"/>
     <use xlink:href="#m2dadb853f7" x="233.666595" y="41.055556" style="fill: #1f77b4; stroke: #1f77b4"/>
     <use xlink:href="#m2dadb853f7" x="257.401787" y="26.88" style="fill: #1f77b4; stroke: #1f77b4"/>
     <use xlink:href="#m2dadb853f7" x="277.158969" y="39.638" style="fill: #1f77b4; stroke: #1f77b4"/>
     <use xlink:href="#m2dadb853f7" x="302.112462" y="26.88" style="fill: #1f77b4; stroke: #1f77b4"/>
     <use xlink:href="#m2dadb853f7" x="323.066017" y="26.88" style="fill: #1f77b4; stroke: #1f77b4"/>
     <use xlink:href="#m2dadb853f7" x="344.80531" y="26.88" style="fill: #1f77b4; stroke: #1f77b4"/>
     <use xlink:href="#m2dadb853f7" x="370.89204" y="26.88" style="fill: #1f77b4; stroke: #1f77b4"/>
    </g>
   </g>
   <g id="line2d_14">
    <path d="M 89.939471 282.04 
L 105.712973 282.04 
L 123.414592 273.534667 
L 146.370963 261.6272 
L 169.944156 260.776667 
L 190.391033 196.986667 
L 216.101237 227.362857 
L 234.940125 128.944 
L 256.141602 196.986667 
L 277.971266 42.8275 
L 301.940114 38.478182 
L 322.316143 26.88 
L 347.007233 29.917619 
L 372.600097 26.88 
" clip-path="url(#p5d6dca284c)" style="fill: none; stroke: #ff7f0e; stroke-width: 1.5; stroke-linecap: square"/>
    <defs>
     <path id="mf3e637db65" d="M 0 3 
C 0.795609 3 1.55874 2.683901 2.12132 2.12132 
C 2.683901 1.55874 3 0.795609 3 0 
C 3 -0.795609 2.683901 -1.55874 2.12132 -2.12132 
C 1.55874 -2.683901 0.795609 -3 0 -3 
C -0.795609 -3 -1.55874 -2.683901 -2.12132 -2.12132 
C -2.683901 -1.55874 -3 -0.795609 -3 0 
C -3 0.795609 -2.683901 1.55874 -2.12132 2.12132 
C -1.55874 2.683901 -0.795609 3 0 3 
z
" style="stroke: #ff7f0e"/>
    </defs>
    <g clip-path="url(#p5d6dca284c)">
     <use xlink:href="#mf3e637db65" x="89.939471" y="282.04" style="fill: #ff7f0e; stroke: #ff7f0e"/>
     <use xlink:href="#mf3e637db65" x="105.712973" y="282.04" style="fill: #ff7f0e; stroke: #ff7f0e"/>
     <use xlink:href="#mf3e637db65" x="123.414592" y="273.534667" style="fill: #ff7f0e; stroke: #ff7f0e"/>
     <use xlink:href="#mf3e637db65" x="146.370963" y="261.6272" style="fill: #ff7f0e; stroke: #ff7f0e"/>
     <use xlink:href="#mf3e637db65" x="169.944156" y="260.776667" style="fill: #ff7f0e; stroke: #ff7f0e"/>
     <use xlink:href="#mf3e637db65" x="190.391033" y="196.986667" style="fill: #ff7f0e; stroke: #ff7f0e"/>
     <use xlink:href="#mf3e637db65" x="216.101237" y="227.362857" style="fill: #ff7f0e; stroke: #ff7f0e"/>
     <use xlink:href="#mf3e637db65" x="234.940125" y="128.944" style="fill: #ff7f0e; stroke: #ff7f0e"/>
     <use xlink:href="#mf3e637db65" x="256.141602" y="196.986667" style="fill: #ff7f0e; stroke: #ff7f0e"/>
     <use xlink:href="#mf3e637db65" x="277.971266" y="42.8275" style="fill: #ff7f0e; stroke: #ff7f0e"/>
     <use xlink:href="#mf3e637db65" x="301.940114" y="38.478182" style="fill: #ff7f0e; stroke: #ff7f0e"/>
     <use xlink:href="#mf3e637db65" x="322.316143" y="26.88" style="fill: #ff7f0e; stroke: #ff7f0e"/>
     <use xlink:href="#mf3e637db65" x="347.007233" y="29.917619" style="fill: #ff7f0e; stroke: #ff7f0e"/>
     <use xlink:href="#mf3e637db65" x="372.600097" y="26.88" style="fill: #ff7f0e; stroke: #ff7f0e"/>
    </g>
   </g>
   <g id="line2d_15">
    <path d="M 47.72 282.04 
L 377.28 26.88 
" clip-path="url(#p5d6dca284c)" style="fill: none; stroke-dasharray: 5.55,2.4; stroke-dashoffset: 0; stroke: #808080; stroke-width: 1.5"/>
   </g>
   <g id="patch_3">
    <path d="M 47.72 282.04 
L 47.72 26.88 
" style="fill: none; stroke: #000000; stroke-width: 0.8; stroke-linejoin: miter; stroke-linecap: square"/>
   </g>
   <g id="patch_4">
    <path d="M 377.28 282.04 
L 377.28 26.88 
" style="fill: none; stroke: #000000; stroke-width: 0.8; stroke-linejoin: miter; stroke-linecap: square"/>
   </g>
   <g id="patch_5">
    <path d="M 47.72 282.04 
L 377.28 282.04 
" style="fill: none; stroke: #000000; stroke-width: 0.8; stroke-linejoin: miter; stroke-linecap: square"/>
   </g>
   <g id="patch_6">
    <path d="M 47.72 26.88 
L 377.28 26.88 
" style="fill: none; stroke: #000000; stroke-width: 0.8; stroke-linejoin: miter; stroke-linecap: square"/>
   </g>
   <g id="text_15">
    <text style="font: 12px 'DejaVu Sans', 'Bitstream Vera Sans', 'Computer Modern Sans Serif', 'Lucida Grande', 'Verdana', 'Geneva', 'Lucid', 'Arial', 'Helvetica', 'Avant Garde', sans-serif; text-anchor: middle" x="212.5" y="20.88" transform="rotate(-0 212.5 20.88)">FF++ test: video calibration (15 bins)</text>
   </g>
   <g id="legend_1">
    <g id="patch_7">
     <path d="M 54.72 64.23625 
L 138.396563 64.23625 
Q 140.396563 64.23625 140.396563 62.23625 
L 140.396563 33.88 
Q 140.396563 31.88 138.396563 31.88 
L 54.72 31.88 
Q 52.72 31.88 52.72 33.88 
L 52.72 62.23625 
Q 52.72 64.23625 54.72 64.23625 
z
" style="fill: #ffffff; opacity: 0.8; stroke: #cccccc; stroke-linejoin: miter"/>
    </g>
    <g id="line2d_16">
     <path d="M 56.72 39.978437 
L 66.72 39.978437 
L 76.72 39.978437 
" style="fill: none; stroke: #1f77b4; stroke-width: 1.5; stroke-linecap: square"/>
     <g>
      <use xlink:href="#m2dadb853f7" x="66.72" y="39.978437" style="fill: #1f77b4; stroke: #1f77b4"/>
     </g>
    </g>
    <g id="text_16">
     <text style="font: 10px 'DejaVu Sans', 'Bitstream Vera Sans', 'Computer Modern Sans Serif', 'Lucida Grande', 'Verdana', 'Geneva', 'Lucid', 'Arial', 'Helvetica', 'Avant Garde', sans-serif; text-anchor: start" x="84.72" y="43.478437" transform="rotate(-0 84.72 43.478437)">Raw</text>
    </g>
    <g id="line2d_17">
     <path d="M 56.72 54.656563 
L 66.72 54.656563 
L 76.72 54.656563 
" style="fill: none; stroke: #ff7f0e; stroke-width: 1.5; stroke-linecap: square"/>
     <g>
      <use xlink:href="#mf3e637db65" x="66.72" y="54.656563" style="fill: #ff7f0e; stroke: #ff7f0e"/>
     </g>
    </g>
    <g id="text_17">
     <text style="font: 10px 'DejaVu Sans', 'Bitstream Vera Sans', 'Computer Modern Sans Serif', 'Lucida Grande', 'Verdana', 'Geneva', 'Lucid', 'Arial', 'Helvetica', 'Avant Garde', sans-serif; text-anchor: start" x="84.72" y="58.156563" transform="rotate(-0 84.72 58.156563)">Calibrated</text>
    </g>
   </g>
  </g>
 </g>
 <defs>
  <clipPath id="p5d6dca284c">
   <rect x="47.72" y="26.88" width="329.56" height="255.16"/>
  </clipPath>
 </defs>
</svg>
